OpenSim_Sub08_CSBaseline_GRF.mot
version=1
nRows=41
nColumns=19
inDegrees=no
endheader
time	lFx	lFy	lFz	lCOPx	lCOPy	lCOPz	rFx	rFy	rFz	rCOPx	rCOPy	rCOPz	lMx	lMy	lMz	rMx	rMy	rMz
40.95000000	39.25373647	306.91657389	18.05974086	0.51216102	0	-0.61341030	11.36550140	20.81547806	2.91780477	0.29729652	0	-0.13901850	0	4.42262349	0	0	-0.03777596	0.00000000
40.96000000	37.11947381	267.91752880	14.19425562	0.50691407	0	-0.61384533	15.06665946	40.60202402	5.22793756	0.58880277	0	-0.28026754	0	4.36597056	0	0	0.03543241	-0.00000000
40.97000000	33.08124691	226.64706011	10.59865229	0.50258664	0	-0.61544643	13.83252733	64.55453112	6.68853501	0.80517495	0	-0.39053678	0	4.12636364	0	0	0.05934828	0.00000000
40.98000000	27.09897071	185.18000125	7.84342678	0.49912493	0	-0.61890525	8.10108472	92.13637347	7.25852942	0.90248574	0	-0.44252788	0	3.60736132	0	0	-0.05381450	0.00000000
40.99000000	19.66566703	145.48108925	6.17048242	0.49377821	0	-0.62315502	0.02889647	125.77596861	7.64265034	0.92463875	0	-0.45470647	0	2.82078734	0	0	-0.34234425	0
41.00000000	11.62402976	109.48138535	5.57254724	0.48333966	0	-0.62309378	-9.16160889	167.62810058	8.02426806	0.91717067	0	-0.45003618	0	1.80040256	0	0	-0.69020018	0
41.01000000	3.99256395	79.10172096	5.67516209	0.46725928	0	-0.60780555	-18.55317200	215.48567609	7.41332143	0.90544457	0	-0.44264073	0	0.79052618	0	0	-0.93780324	-0.00000000
41.02000000	-2.38208659	55.56818662	6.00887885	0.44920358	0	-0.56270673	-27.13928235	262.80554375	4.29808105	0.89891134	0	-0.43793764	0	0.12955197	0	0	-1.01689907	0
41.03000000	-6.78946311	38.41995755	6.05733690	0.42654086	0	-0.48109420	-34.09460622	302.01930934	-2.07364279	0.89712181	0	-0.43606036	0	-0.11240332	0	0	-0.96154689	-0.00000000
41.04000000	-8.96618495	26.06827894	5.53749414	0.37558828	0	-0.37461346	-38.56993335	327.44472190	-10.79489775	0.89354746	0	-0.43371674	0	-0.20257608	0	0	-0.88119985	0.00000000
41.05000000	-8.92709876	16.51981595	4.43022627	0.27417423	0	-0.24613523	-40.13318982	335.13036242	-19.44357239	0.87421936	0	-0.42385912	0	-0.21834422	0	0	-0.92453537	0
41.06000000	-7.03437163	8.57031100	2.77172690	0.14745367	0	-0.12051275	-38.90704771	321.84662936	-25.85567058	0.81911462	0	-0.39669081	0	-0.15841309	0	0	-1.04898934	0
41.07000000	-4.43875341	2.56945912	0.96600706	0.04920293	0	-0.03439065	-35.13628719	288.03493833	-28.58346912	0.71648706	0	-0.34676926	0	-0.07518021	0	0	-1.09270939	0
41.08000000	-2.65983850	-0.55990252	-0.10214091	0.00080470	0	0.00403928	-30.62987627	253.76737282	-28.17919217	0.60443920	0	-0.29277528	0	-0.01887002	0	0	-1.08292846	0.00000000
41.09000000	-1.95458504	-1.43263667	-0.28281219	-0.01232672	0	0.01232798	-31.44735085	273.89449371	-30.90439923	0.60691001	0	-0.29568524	0	0.00460442	0	0	-1.02747525	0
41.10000000	-1.87772672	-1.19183133	-0.23076011	-0.01015603	0	0.00887959	-36.81793291	342.91520265	-36.61522452	0.71164480	0	-0.34925826	0	0.00869076	0	0	-1.20283200	0
41.11000000	-2.02158007	-0.63866161	0.03045862	-0.00494192	0	0.00391190	-40.90835612	406.94679923	-39.99020433	0.79893575	0	-0.39467699	0	0.00579644	0	0	-1.49752090	0
41.12000000	-2.16946994	-0.21505567	0.13973088	-0.00130822	0	0.00081394	-42.12753428	450.42248209	-40.60163524	0.83853300	0	-0.41711537	0	0.00238398	0	0	-1.76807263	0
41.13000000	-2.29337559	-0.00332089	0.19967710	0.00024796	0	-0.00037505	-41.22870083	477.30786228	-40.22729723	0.84413006	0	-0.42316338	0	0.00039448	0	0	-1.91530915	0
41.14000000	-2.38995854	0.00479275	0.27711809	0.00054503	0	-0.00051721	-39.54425753	494.91365125	-40.44306869	0.83494737	0	-0.42202222	0	-0.00031048	0	0	-1.99067218	0.00000000
41.15000000	-2.42865717	-0.00695352	0.33409923	0.00037428	0	-0.00031831	-37.82096717	508.25553785	-41.86537278	0.82296030	0	-0.41941164	0	-0.00035450	0	0	-2.07650178	0
41.16000000	-2.42613854	0.08060987	0.41831971	0.00015819	0	-0.00012038	-36.01108067	519.67253425	-44.19489240	0.81253942	0	-0.41753806	0	-0.00020409	0	0	-2.17479042	-0.00000000
41.17000000	-2.41901351	0.19284342	0.43694166	0.00002890	0	-0.00001316	-34.03718907	529.92348977	-46.70264539	0.80438579	0	-0.41663120	0	-0.00007115	0	0	-2.26744435	0
41.18000000	-2.44184636	0.23961665	0.44238980	-0.00001840	0	0.00002113	-31.97487509	538.72663106	-48.73106297	0.79770071	0	-0.41635583	0	-0.00000357	0	0	-2.36780066	0
41.19000000	-2.47289855	0.16207011	0.36693711	-0.00002247	0	0.00002052	-29.85194116	545.25564918	-49.90493296	0.79140937	0	-0.41644082	0	0.00001588	0	0	-2.40325108	0
41.20000000	-2.50397972	0.06580767	0.25877119	-0.00001327	0	0.00001098	-27.63145403	548.84412609	-50.03221369	0.78487511	0	-0.41677505	0	0.00001375	0	0	-2.30213128	0
41.21000000	-2.54419938	0.03730766	0.23573898	-0.00000478	0	0.00000344	-25.15107355	549.23786886	-49.08139599	0.77799538	0	-0.41733847	0	0.00000691	0	0	-2.12407924	0.00000000
41.22000000	-2.56942218	0.07732413	0.26082219	-0.00000035	0	-0.00000012	-22.42168471	546.89362553	-47.26785185	0.77117778	0	-0.41808620	0	0.00000195	0	0	-1.88381803	0
41.23000000	-2.56476920	0.13756414	0.26003397	0.00000098	0	-0.00000100	-19.59994458	542.69574399	-44.88593142	0.76461524	0	-0.41896424	0	-0.00000024	0	0	-1.59533606	-0.00000000
41.24000000	-2.55409774	0.16252356	0.21226519	0.00000088	0	-0.00000078	-16.83024721	537.57377130	-42.28548325	0.75836161	0	-0.41987999	0	-0.00000069	0	0	-1.33777146	-0.00000000
41.25000000	-2.54276782	0.11329644	0.15156322	0.00000045	0	-0.00000036	-14.14955286	531.96347838	-39.88784250	0.75217942	0	-0.42076622	0	-0.00000049	0	0	-1.10238024	0
41.26000000	-2.54012311	0.06809460	0.11607583	0.00000012	0	-0.00000008	-11.71372581	526.07401974	-38.05906597	0.74624975	0	-0.42152551	0	-0.00000024	0	0	-0.86072339	0
41.27000000	-2.56160139	0.03022961	0.07278605	-0.00000006	0	0.00000006	-9.74579972	520.01592803	-36.95104216	0.74091898	0	-0.42210328	0	-0.00000020	0	0	-0.68006061	0
41.28000000	-2.61416926	-0.00263258	0.02074006	-0.00000013	0	0.00000010	-8.36126896	513.87200109	-36.47762255	0.73619812	0	-0.42248537	0	-0.00000038	0	0	-0.54027082	0.00000000
41.29000000	-2.66984056	0.00043129	-0.04066381	-0.00000011	0	0.00000009	-7.41032670	507.77719254	-36.33713815	0.73150600	0	-0.42276287	0	-0.00000060	0	0	-0.35762637	0
41.30000000	-2.70785404	0.08984570	-0.09533890	0.00000006	0	-0.00000004	-6.61150992	502.17242371	-36.17822914	0.72655136	0	-0.42298799	0	-0.00000040	0	0	-0.15718864	0
41.31000000	-2.74581849	0.27572042	-0.11259609	0.00000054	0	-0.00000038	-5.87041687	497.51297091	-35.79264067	0.72141615	0	-0.42316894	0	0.00000111	0	0	0.03152483	0
41.32000000	-2.79269003	0.47085278	-0.09308823	0.00000137	0	-0.00000097	-5.04378774	494.05429395	-35.02963410	0.71636936	0	-0.42328727	0	0.00000497	0	0	0.23693314	-0.00000000
41.33000000	-2.84584328	0.56874931	-0.07200991	0.00000213	0	-0.00000152	-4.08098965	491.81700371	-33.90729801	0.71159431	0	-0.42333656	0	0.00001101	0	0	0.43559477	0
41.34000000	-2.89361655	0.55493959	-0.11074938	0.00000133	0	-0.00000096	-3.04012690	490.71431538	-32.72431347	0.70703097	0	-0.42337562	0	0.00001486	0	0	0.59334392	0
41.35000000	-2.93695792	0.50224646	-0.17441308	-0.00000400	0	0.00000283	-2.09612008	490.85626407	-31.77545259	0.70259963	0	-0.42340985	0	0.00000370	0	0	0.74521276	0.00000000
